<svg width="48" height="46" viewBox="0 0 48 46" fill="none" xmlns="http://www.w3.org/2000/svg">
<rect width="48" height="46" rx="4" fill="#F97945"/>
<path d="M19.8398 22.6252C20.8046 24.6174 22.4155 26.2242 24.4102 27.1838C24.5573 27.2535 24.72 27.2836 24.8824 27.2713C25.0447 27.259 25.201 27.2046 25.3359 27.1135L28.2656 25.1565C28.3951 25.0687 28.5446 25.0151 28.7004 25.0008C28.8561 24.9864 29.013 25.0118 29.1563 25.0744L34.6406 27.4299C34.8281 27.5079 34.9847 27.6454 35.0863 27.8211C35.1879 27.9969 35.229 28.2012 35.2031 28.4026C35.0293 29.7593 34.3671 31.0062 33.3404 31.91C32.3137 32.8137 30.9928 33.3124 29.625 33.3127C25.3981 33.3127 21.3443 31.6336 18.3555 28.6447C15.3666 25.6559 13.6875 21.6021 13.6875 17.3752C13.6878 16.0074 14.1865 14.6866 15.0903 13.6599C15.994 12.6331 17.2409 11.9709 18.5977 11.7971C18.799 11.7712 19.0033 11.8123 19.1791 11.9139C19.3548 12.0156 19.4923 12.1722 19.5703 12.3596L21.9258 17.8557C21.987 17.9967 22.0127 18.1507 22.0004 18.3039C21.9881 18.4572 21.9384 18.6051 21.8555 18.7346L19.8984 21.7112C19.8113 21.8458 19.7602 22.0005 19.7499 22.1605C19.7397 22.3206 19.7706 22.4806 19.8398 22.6252V22.6252Z" stroke="white" stroke-width="1.6" stroke-linecap="round" stroke-linejoin="round"/>
</svg>
