<svg width="66" height="66" viewBox="0 0 66 66" fill="none" xmlns="http://www.w3.org/2000/svg">
<rect width="66" height="66" fill="white"/>
<path d="M0.966797 52.2716V57.6032C0.966797 58.3151 1.54391 58.8922 2.25586 58.8922H40.6338V52.2716H0.966797Z" fill="#9BB9C3"/>
<path d="M5.37629 57.6033V52.2717H0.966797V57.6033C0.966797 58.3152 1.54391 58.8924 2.25586 58.8924H6.66536C5.95341 58.8924 5.37629 58.3152 5.37629 57.6033Z" fill="#87A0AF"/>
<path d="M0.966797 54.2107H40.6338L43.9231 37.2818L40.6338 27.3195V20.2007C40.6338 19.4887 40.0567 18.9116 39.3448 18.9116H2.25586C1.54391 18.9116 0.966797 19.4887 0.966797 20.2007V54.2107Z" fill="#E2AE83"/>
<path d="M2.25586 18.9116C1.54391 18.9116 0.966797 19.4887 0.966797 20.2006V54.2106H5.37629V25.2162C8.5537 30.4099 14.2786 33.8833 20.8003 33.8833C29.7079 33.8833 37.1298 27.4043 38.6032 18.9114H2.25586V18.9116Z" fill="#D39C72"/>
<path d="M13.5321 65.0332C10.1405 65.0332 7.39122 62.2839 7.39122 58.8924C7.39122 55.5008 10.1405 52.7515 13.5321 52.7515C16.9236 52.7515 19.6729 55.5008 19.6729 58.8924C19.6729 62.2839 16.9235 65.0332 13.5321 65.0332Z" fill="#495959"/>
<path d="M13.5321 56.5254C12.2248 56.5254 11.1651 57.5851 11.1651 58.8924C11.1651 60.1996 12.2248 61.2593 13.5321 61.2593C14.8393 61.2593 15.899 60.1996 15.899 58.8924C15.8989 57.5851 14.8392 56.5254 13.5321 56.5254Z" fill="#F1F6F7"/>
<path d="M40.6338 52.2716V58.8922H63.7441C64.4561 58.8922 65.0332 58.3151 65.0332 57.6032V52.2716H40.6338Z" fill="#9BB9C3"/>
<path d="M40.6338 52.2716H44.5753V58.8922H40.6338V52.2716Z" fill="#87A0AF"/>
<path d="M64.7158 40.2391L53.8401 27.7615C53.5953 27.4806 53.241 27.3195 52.8684 27.3195H41.9229C41.2109 27.3195 40.6338 27.8966 40.6338 28.6085V54.2107H65.0332V41.0861C65.0332 40.7747 64.9205 40.4738 64.7158 40.2391Z" fill="#DC4955"/>
<path d="M45.8643 27.3195H41.9229C41.2109 27.3195 40.6338 27.8966 40.6338 28.6085V54.2107H44.5753V28.6085C44.5753 27.8966 45.1524 27.3195 45.8643 27.3195Z" fill="#C42430"/>
<path d="M44.5753 42.087V32.4767C44.5753 32.1208 44.8639 31.8322 45.2198 31.8322H50.816C51.0023 31.8322 51.1795 31.9127 51.3018 32.0532L58.8925 40.7619C58.9948 40.8792 59.0512 41.0296 59.0512 41.1853V42.087C59.0512 42.4429 58.7625 42.7316 58.4066 42.7316H45.2198C44.8637 42.7316 44.5753 42.4429 44.5753 42.087Z" fill="#7398D4"/>
<path d="M52.4576 65.0332C49.0661 65.0332 46.3168 62.2839 46.3168 58.8924C46.3168 55.5008 49.0661 52.7515 52.4576 52.7515C55.8491 52.7515 58.5985 55.5008 58.5985 58.8924C58.5986 62.2839 55.8491 65.0332 52.4576 65.0332Z" fill="#495959"/>
<path d="M52.4576 56.5254C51.1504 56.5254 50.0906 57.5851 50.0906 58.8924C50.0906 60.1996 51.1504 61.2593 52.4576 61.2593C53.7649 61.2593 54.8246 60.1996 54.8246 58.8924C54.8246 57.5851 53.7649 56.5254 52.4576 56.5254Z" fill="#F1F6F7"/>
<path d="M59.6957 50.343H65.0332V46.5996H59.6957C59.3398 46.5996 59.0512 46.8882 59.0512 47.2441V49.6985C59.0512 50.0544 59.3397 50.343 59.6957 50.343Z" fill="#FFE17D"/>
<path d="M10.5078 44.525H12.8846C13.2405 44.525 13.5291 44.2364 13.5291 43.8805V37.4465H15.1097C15.6924 37.4465 15.976 36.7348 15.5531 36.334L12.3008 33.2525C12.0584 33.0229 11.681 33.0164 11.4308 33.2373L7.94191 36.3188C7.49693 36.7118 7.77498 37.4465 8.36859 37.4465H9.86326V43.8805C9.86326 44.2365 10.1519 44.525 10.5078 44.525Z" fill="#F1F6F7"/>
<path d="M20.8003 30.6607C12.6006 30.6607 5.9534 24.0136 5.9534 15.8138C5.9534 7.61398 12.6006 0.966797 20.8003 0.966797C29 0.966797 35.6472 7.61398 35.6472 15.8137C35.6472 24.0134 29 30.6607 20.8003 30.6607Z" fill="#FFE17D"/>
<path d="M10.4084 15.8137C10.4084 8.37104 15.8849 2.20791 23.0278 1.13309C22.3012 1.02377 21.5574 0.966797 20.8003 0.966797C12.6006 0.966797 5.9534 7.61398 5.9534 15.8137C5.9534 24.0134 12.6006 30.6606 20.8003 30.6606C21.5574 30.6606 22.3012 30.6035 23.0278 30.4942C15.8849 29.4195 10.4084 23.2564 10.4084 15.8137Z" fill="#FFD164"/>
<path d="M20.8003 5.42181C15.061 5.42181 10.4084 10.0744 10.4084 15.8137C10.4084 21.553 15.061 26.2056 20.8003 26.2056C26.5396 26.2056 31.1922 21.553 31.1922 15.8137C31.1922 10.0744 26.5396 5.42181 20.8003 5.42181Z" fill="#FFF9DF"/>
<path d="M13.125 15.8137C13.125 10.5351 17.0616 6.17888 22.1586 5.51308C21.7137 5.45494 21.261 5.42181 20.8003 5.42181C15.061 5.42181 10.4084 10.0744 10.4084 15.8137C10.4084 21.553 15.061 26.2056 20.8003 26.2056C21.261 26.2056 21.7137 26.1725 22.1586 26.1144C17.0615 25.4486 13.125 21.0923 13.125 15.8137Z" fill="#FFF0AF"/>
<path d="M13.5321 55.5586C11.6939 55.5586 10.1983 57.0542 10.1983 58.8922C10.1983 60.7306 11.6939 62.226 13.5321 62.226C15.3703 62.226 16.8658 60.7304 16.8658 58.8922C16.8657 57.0542 15.3703 55.5586 13.5321 55.5586ZM13.5321 60.2925C12.76 60.2925 12.1319 59.6644 12.1319 58.8924C12.1319 58.1203 12.7599 57.4922 13.5321 57.4922C14.3042 57.4922 14.9322 58.1202 14.9322 58.8922C14.9322 59.6643 14.3041 60.2925 13.5321 60.2925Z" fill="black"/>
<path d="M65.4445 39.6039L54.5689 27.1261C54.1402 26.6346 53.5205 26.3526 52.8685 26.3526H41.6006V20.2005C41.6006 18.9567 40.5886 17.9446 39.3448 17.9446C38.8107 17.9446 38.378 18.3774 38.378 18.9114C38.378 19.4455 38.8107 19.8782 39.3448 19.8782C39.5225 19.8782 39.667 20.0227 39.667 20.2005V53.2437H29.7052C29.1712 53.2437 28.7384 53.6764 28.7384 54.2105C28.7384 54.7445 29.1712 55.1773 29.7052 55.1773H39.667V57.9253H20.5721C20.436 56.9292 20.094 55.9981 19.5886 55.1773H24.9408C25.4747 55.1773 25.9076 54.7445 25.9076 54.2105C25.9076 53.6764 25.4747 53.2437 24.9408 53.2437H17.8395C16.6433 52.3293 15.1504 51.7846 13.5319 51.7846C11.9135 51.7846 10.4207 52.3293 9.22453 53.2437H1.93359V20.2006C1.93359 20.0229 2.07823 19.8784 2.25586 19.8784C2.78979 19.8784 3.22266 19.4456 3.22266 18.9116C3.22266 18.3775 2.78979 17.9448 2.25586 17.9448C1.01204 17.9448 0 18.9568 0 20.2006V57.6032C0 58.847 1.01204 59.859 2.25586 59.859H6.49185C6.96506 63.3223 9.94086 66 13.5321 66C17.1231 66 20.0989 63.3223 20.5723 59.859H45.4177C45.8909 63.3223 48.8666 66 52.4576 66C56.0487 66 59.0245 63.3223 59.4978 59.859H63.7441C64.988 59.859 66 58.847 66 57.6032V41.0861C66 40.5411 65.8028 40.0147 65.4445 39.6039ZM6.49185 57.9254H2.25586C2.07823 57.9254 1.93359 57.7809 1.93359 57.6032V55.1774H7.4754C6.97009 55.9984 6.62797 56.9295 6.49185 57.9254ZM13.5321 64.0664C10.6791 64.0664 8.35802 61.7453 8.35802 58.8922C8.35802 56.0393 10.6791 53.7182 13.5321 53.7182C16.385 53.7182 18.7061 56.0393 18.7061 58.8924C18.7061 61.7453 16.385 64.0664 13.5321 64.0664ZM45.4175 57.9254H41.6006V55.1774H46.4012C45.8958 55.9984 45.5537 56.9295 45.4175 57.9254ZM52.4576 64.0664C49.6047 64.0664 47.2836 61.7453 47.2836 58.8922C47.2836 56.0393 49.6047 53.7182 52.4576 53.7182C55.3107 53.7182 57.6318 56.0393 57.6318 58.8924C57.6318 61.7453 55.3107 64.0664 52.4576 64.0664ZM64.0664 57.6032C64.0664 57.7809 63.9219 57.9254 63.7441 57.9254H59.4978C59.3617 56.9294 59.0197 55.9983 58.5143 55.1774H64.0664V57.6032ZM64.0664 49.3762H60.018V47.5664H64.0664V49.3762ZM64.0664 45.6328H59.6957C58.8072 45.6328 58.0844 46.3556 58.0844 47.2441V49.6985C58.0844 50.5871 58.8072 51.3098 59.6957 51.3098H64.0664V53.2438H56.7652C55.569 52.3295 54.076 51.7847 52.4576 51.7847C50.8392 51.7847 49.3463 52.3295 48.1502 53.2438H41.6006V28.6085C41.6006 28.4308 41.7451 28.2863 41.9229 28.2863H52.8685C52.9617 28.2863 53.0501 28.3266 53.1114 28.3967L63.9871 40.8744V40.8745C64.0382 40.9331 64.0664 41.0083 64.0664 41.0861V45.6328Z" fill="black"/>
<path d="M45.2198 43.6982H58.4066C59.2952 43.6982 60.018 42.9754 60.018 42.0869V41.1852C60.018 40.7962 59.8772 40.4205 59.6213 40.1264L52.0304 31.4173C51.7241 31.0664 51.2815 30.8652 50.816 30.8652H45.2198C44.3312 30.8652 43.6085 31.588 43.6085 32.4765V42.0869C43.6085 42.9754 44.3312 43.6982 45.2198 43.6982ZM45.5421 32.7988H50.6694L58.0842 41.3058V41.7646H45.5419V32.7988H45.5421Z" fill="black"/>
<path d="M44.5753 47.6953H46.6575C47.1915 47.6953 47.6243 47.2626 47.6243 46.7285C47.6243 46.1945 47.1915 45.7617 46.6575 45.7617H44.5753C44.0412 45.7617 43.6085 46.1945 43.6085 46.7285C43.6085 47.2626 44.0412 47.6953 44.5753 47.6953Z" fill="black"/>
<path d="M52.4576 55.5586C50.6194 55.5586 49.124 57.0542 49.124 58.8922C49.124 60.7306 50.6196 62.226 52.4576 62.226C54.296 62.226 55.7914 60.7304 55.7914 58.8922C55.7915 57.0542 54.296 55.5586 52.4576 55.5586ZM52.4576 60.2925C51.6856 60.2925 51.0576 59.6644 51.0576 58.8924C51.0576 58.1203 51.6856 57.4922 52.4576 57.4922C53.2297 57.4922 53.8578 58.1202 53.8578 58.8922C53.8578 59.6643 53.2298 60.2925 52.4576 60.2925Z" fill="black"/>
<path d="M35.7841 47.4874H29.2862C28.7523 47.4874 28.3194 47.9201 28.3194 48.4542C28.3194 48.9882 28.7523 49.421 29.2862 49.421H35.7841C36.3182 49.421 36.7509 48.9882 36.7509 48.4542C36.7509 47.9201 36.318 47.4874 35.7841 47.4874Z" fill="black"/>
<path d="M35.7841 43.3816H29.2862C28.7523 43.3816 28.3194 43.8143 28.3194 44.3484C28.3194 44.8824 28.7523 45.3152 29.2862 45.3152H35.7841C36.3182 45.3152 36.7509 44.8824 36.7509 44.3484C36.7509 43.8143 36.318 43.3816 35.7841 43.3816Z" fill="black"/>
<path d="M5.69856 48.4542C5.69856 48.9882 6.13143 49.421 6.66536 49.421H16.7273C17.2612 49.421 17.6941 48.9882 17.6941 48.4542C17.6941 47.9201 17.2612 47.4874 16.7273 47.4874H6.66536C6.1313 47.4874 5.69856 47.9201 5.69856 48.4542Z" fill="black"/>
<path d="M10.5079 45.4918H12.8847C13.7732 45.4918 14.496 44.769 14.496 43.8805V38.4133H15.1099C15.7734 38.4133 16.361 38.015 16.6066 37.3986C16.8523 36.7823 16.6999 36.0889 16.2181 35.6323L12.9659 32.5509C12.356 31.9729 11.4208 31.9565 10.7909 32.5129L7.30228 35.5943C6.79542 36.0418 6.62243 36.7396 6.86168 37.372C7.10093 38.0045 7.69261 38.4133 8.36885 38.4133H8.89672V43.8805C8.89659 44.769 9.61937 45.4918 10.5079 45.4918ZM11.8498 34.1573L14.3011 36.4798H13.5291C12.9952 36.4798 12.5623 36.9126 12.5623 37.4466V43.5583H10.8302V37.4466C10.8302 36.9126 10.3973 36.4798 9.86339 36.4798H9.22053L11.8498 34.1573Z" fill="black"/>
<path d="M20.8003 31.6275C29.52 31.6275 36.614 24.5336 36.614 15.8137C36.614 7.09397 29.52 0 20.8003 0C12.0806 0 4.9866 7.09397 4.9866 15.8138C4.9866 24.5334 12.0806 31.6275 20.8003 31.6275ZM20.8003 1.93359C28.4539 1.93359 34.6804 8.16028 34.6804 15.8138C34.6804 23.4674 28.4539 29.6939 20.8003 29.6939C13.1468 29.6939 6.9202 23.4673 6.9202 15.8137C6.9202 8.16015 13.1468 1.93359 20.8003 1.93359Z" fill="black"/>
<path d="M20.8003 27.1726C27.0635 27.1726 32.159 22.077 32.159 15.8137C32.159 9.55042 27.0635 4.45502 20.8003 4.45502C14.5371 4.45502 9.4416 9.55055 9.4416 15.8138C9.4416 22.0771 14.537 27.1726 20.8003 27.1726ZM20.8003 6.38861C25.9973 6.38861 30.2254 10.6167 30.2254 15.8138C30.2254 21.0108 25.9973 25.239 20.8003 25.239C15.6033 25.239 11.3752 21.0108 11.3752 15.8137C11.3752 10.6166 15.6032 6.38861 20.8003 6.38861Z" fill="black"/>
<path d="M20.8003 16.7805H23.0278C23.5617 16.7805 23.9946 16.3478 23.9946 15.8137C23.9946 15.2797 23.5617 14.8469 23.0278 14.8469H21.7671V12.6921C21.7671 12.1581 21.3342 11.7253 20.8003 11.7253C20.2664 11.7253 19.8335 12.1581 19.8335 12.6921V15.8137C19.8335 16.3477 20.2664 16.7805 20.8003 16.7805Z" fill="black"/>
<path d="M0.966797 6.38861H5.81367C6.3476 6.38861 6.78047 5.95587 6.78047 5.42181C6.78047 4.88776 6.3476 4.45502 5.81367 4.45502H0.966797C0.432867 4.45502 0 4.88776 0 5.42181C0 5.95587 0.432867 6.38861 0.966797 6.38861Z" fill="black"/>
<path d="M0.966797 15.2197H2.15016C2.68409 15.2197 3.11695 14.787 3.11695 14.2529C3.11695 13.7189 2.68409 13.2861 2.15016 13.2861H0.966797C0.432867 13.2861 0 13.7189 0 14.2529C0 14.787 0.432867 15.2197 0.966797 15.2197Z" fill="black"/>
<path d="M0.966797 10.8436H2.99733C3.53126 10.8436 3.96413 10.4108 3.96413 9.87677C3.96413 9.34271 3.53126 8.90997 2.99733 8.90997H0.966797C0.432867 8.90997 0 9.34271 0 9.87677C0 10.4108 0.432867 10.8436 0.966797 10.8436Z" fill="black"/>
<path d="M20.8003 9.70533C21.334 9.70533 21.7666 9.27272 21.7666 8.73905C21.7666 8.20538 21.334 7.77277 20.8003 7.77277C20.2666 7.77277 19.834 8.20538 19.834 8.73905C19.834 9.27272 20.2666 9.70533 20.8003 9.70533Z" fill="black"/>
<path d="M20.8003 21.9222C20.2666 21.9222 19.834 22.3548 19.834 22.8885C19.834 23.4221 20.2666 23.8547 20.8003 23.8547C21.334 23.8547 21.7666 23.4221 21.7666 22.8885C21.7666 22.3549 21.334 21.9222 20.8003 21.9222Z" fill="black"/>
<path d="M25.1196 11.4944C25.4969 11.8717 26.1088 11.8717 26.4861 11.4944C26.8634 11.1171 26.8634 10.5052 26.4861 10.1279C26.1088 9.75058 25.4969 9.75058 25.1196 10.1279C24.7423 10.5052 24.7423 11.1171 25.1196 11.4944Z" fill="black"/>
<path d="M16.4809 21.4996C16.8582 21.1223 16.8582 20.5104 16.4809 20.1331C16.1036 19.7558 15.4917 19.7558 15.1144 20.1331C14.7371 20.5104 14.7371 21.1223 15.1144 21.4996C15.4917 21.8769 16.1036 21.8771 16.4809 21.4996Z" fill="black"/>
<path d="M27.8751 16.7801C28.4087 16.7801 28.8414 16.3475 28.8414 15.8138C28.8414 15.2802 28.4087 14.8475 27.8751 14.8475C27.3414 14.8475 26.9088 15.2802 26.9088 15.8138C26.9088 16.3475 27.3414 16.7801 27.8751 16.7801Z" fill="black"/>
<path d="M13.7256 16.7801C14.2592 16.7801 14.6918 16.3475 14.6918 15.8138C14.6918 15.2801 14.2592 14.8475 13.7256 14.8475C13.1919 14.8475 12.7593 15.2801 12.7593 15.8138C12.7593 16.3475 13.1919 16.7801 13.7256 16.7801Z" fill="black"/>
<path d="M25.8029 21.7827C26.3366 21.7827 26.7692 21.3501 26.7692 20.8164C26.7692 20.2828 26.3366 19.8502 25.8029 19.8502C25.2692 19.8502 24.8366 20.2828 24.8366 20.8164C24.8366 21.3501 25.2692 21.7827 25.8029 21.7827Z" fill="black"/>
<path d="M15.1144 11.4944C15.4917 11.8717 16.1036 11.8717 16.4809 11.4944C16.8582 11.1171 16.8582 10.5052 16.4809 10.1279C16.1036 9.75058 15.4917 9.75058 15.1144 10.1279C14.7371 10.5052 14.7371 11.1171 15.1144 11.4944Z" fill="black"/>
</svg>
