<svg width="66" height="67" viewBox="0 0 66 67" fill="none" xmlns="http://www.w3.org/2000/svg">
<rect width="66" height="66" fill="white"/>
<path d="M49.912 56.4936H2.90039C1.83253 56.4936 0.966797 55.6279 0.966797 54.56V3.90039C0.966797 2.83253 1.83253 1.9668 2.90039 1.9668H21.2875L26.7068 3.25586L36.6816 1.9668H49.912C50.9798 1.9668 51.8456 2.83253 51.8456 3.90039V54.5602C51.8456 55.628 50.9798 56.4936 49.912 56.4936Z" fill="#E69E75"/>
<path d="M57.0023 3.90039V54.5605C57.0023 55.6279 56.1361 56.4941 55.0688 56.4941H48.6234C49.6908 56.4941 50.557 55.6279 50.557 54.5605V3.90039C50.557 2.83305 49.6908 1.9668 48.6234 1.9668H55.0688C56.1361 1.9668 57.0023 2.83305 57.0023 3.90039Z" fill="#DF8F68"/>
<path d="M34.0581 14.6525L30.623 14.1666L29.4544 13.4088C29.1685 13.2233 28.8002 13.2233 28.5142 13.4088L22.6214 17.2307C22.0466 17.6035 21.2873 17.191 21.2873 16.5059V1.9668H30.6228L35.392 3.25586V13.9276C35.3921 14.6126 34.6329 15.0251 34.0581 14.6525Z" fill="#F8EFF4"/>
<path d="M36.6815 1.9668V16.5061C36.6815 17.1906 35.9223 17.6031 35.3474 17.2306L30.623 14.1665V1.9668H36.6815Z" fill="#E6DFE3"/>
<path d="M17.9807 50.2668H8.43097C8.07506 50.2668 7.78644 49.9782 7.78644 49.6223V44.2576C7.78644 43.9017 8.07506 43.613 8.43097 43.613H17.9807C18.3366 43.613 18.6253 43.9017 18.6253 44.2576V49.6223C18.6253 49.9782 18.3366 50.2668 17.9807 50.2668Z" fill="#FFE06C"/>
<path d="M21.9772 44.2571V49.6222C21.9772 49.9779 21.6885 50.2667 21.3327 50.2667H17.4655C17.8213 50.2667 18.11 49.9779 18.11 49.6222V44.2571C18.11 43.9013 17.8213 43.6125 17.4655 43.6125H21.3327C21.6885 43.6125 21.9772 43.9013 21.9772 44.2571Z" fill="#FFCF53"/>
<path d="M63.7441 47.2622C63.7441 57.135 57.0297 65.0096 47.1569 65.0096C46.5038 65.0096 45.8591 65.1035 45.2242 65.0353C36.2603 64.0717 29.2805 56.4821 29.2805 47.2622C29.2805 38.0428 36.2597 30.4536 45.2229 29.4893C45.8582 29.421 46.5035 29.5148 47.1569 29.5148C57.0297 29.5149 63.7441 37.3894 63.7441 47.2622Z" fill="#FFE06C"/>
<path d="M65.0332 47.2618C65.0332 57.1348 57.0294 65.1386 47.1565 65.1386C46.5029 65.1386 45.8584 65.1038 45.2229 65.0354C54.1858 64.0712 61.166 56.4812 61.166 47.2618C61.166 38.0425 54.1858 30.4538 45.2229 29.4895C45.8584 29.4212 46.5029 29.3864 47.1565 29.3864C57.0294 29.3864 65.0332 37.3889 65.0332 47.2618Z" fill="#FFCF53"/>
<path d="M9.92307 55.527H2.90039C2.36736 55.527 1.93359 55.0933 1.93359 54.5602V3.90039C1.93359 3.36723 2.36736 2.93359 2.90039 2.93359H20.3207V16.5057C20.3207 17.1773 20.6873 17.7936 21.2773 18.1144C21.8674 18.4352 22.584 18.4072 23.1474 18.0418L28.9842 14.2562L34.8211 18.0418C35.1235 18.2379 35.4698 18.3369 35.8171 18.3369C36.1171 18.3369 36.4178 18.2631 36.6912 18.1144C37.2814 17.7938 37.648 17.1773 37.648 16.5057V2.93359H55.0682C55.6014 2.93359 56.035 3.36723 56.035 3.90039V16.0667C56.035 16.6007 56.4679 17.0335 57.0018 17.0335C57.5358 17.0335 57.9686 16.6007 57.9686 16.0667V3.90039C57.9686 2.30118 56.6676 1 55.0682 1H2.90039C1.30105 1 0 2.30118 0 3.90039V54.5602C0 56.1594 1.30105 57.4606 2.90039 57.4606H9.92307C10.457 57.4606 10.8899 57.0278 10.8899 56.4938C10.8899 55.9597 10.457 55.527 9.92307 55.527ZM35.7144 16.3164L29.9804 12.5973C29.3753 12.2052 28.5932 12.205 27.9881 12.5974L22.2542 16.3164V2.93359H35.7144V16.3164Z" fill="black"/>
<path d="M8.43097 42.6462C7.54242 42.6462 6.81964 43.369 6.81964 44.2576V49.6223C6.81964 50.5108 7.54242 51.2336 8.43097 51.2336H21.3323C22.2208 51.2336 22.9436 50.5108 22.9436 49.6223V44.2576C22.9436 43.369 22.2208 42.6462 21.3323 42.6462H8.43097ZM21.01 49.3H8.75323V44.5798H21.01V49.3Z" fill="black"/>
<path d="M57.9543 31.8286C57.9631 31.7764 57.9686 31.7232 57.9686 31.6685V20.2802C57.9686 19.7461 57.5358 19.3134 57.0018 19.3134C56.4679 19.3134 56.035 19.7461 56.035 20.2802V30.646C53.3881 29.226 50.3651 28.4193 47.1569 28.4193C45.2466 28.4193 43.3615 28.7043 41.5538 29.2666C41.044 29.4251 40.7593 29.9671 40.9178 30.4769C41.0764 30.9867 41.6184 31.2721 42.1281 31.1129C43.7496 30.6086 45.4415 30.353 47.1569 30.353C56.4808 30.353 64.0664 37.9386 64.0664 47.2626C64.0664 56.5865 56.4808 64.1721 47.1569 64.1721C37.833 64.1721 30.2473 56.5865 30.2473 47.2626C30.2473 44.287 31.0307 41.3615 32.5126 38.8022C33.9512 36.3178 36.0136 34.2241 38.4767 32.7477C38.9347 32.4733 39.0835 31.8795 38.8089 31.4215C38.5343 30.9635 37.9406 30.8148 37.4826 31.0893C34.7389 32.7338 32.4417 35.0658 30.8393 37.8332C29.1871 40.6867 28.3137 43.9472 28.3137 47.2624C28.3137 50.2253 29.0021 53.0302 30.2258 55.527H14.1365C13.6026 55.527 13.1697 55.9597 13.1697 56.4938C13.1697 57.0278 13.6026 57.4606 14.1365 57.4606H31.3189C34.6772 62.658 40.5218 66.1056 47.1569 66.1056C57.547 66.1054 66 57.6525 66 47.2623C66 40.8858 62.8156 35.2397 57.9543 31.8286Z" fill="black"/>
<path d="M47.6592 35.2004C43.4205 35.2004 39.5569 37.4262 37.3933 40.9327L37.1036 39.9745C36.9489 39.4634 36.4093 39.1743 35.8983 39.329C35.3872 39.4834 35.0982 40.0231 35.2528 40.5343L36.2625 43.8736C36.3888 44.2914 36.7724 44.5608 37.1875 44.5608C37.2802 44.5608 37.3744 44.5472 37.4676 44.5191L40.8071 43.5095C41.3182 43.3551 41.6073 42.8155 41.4528 42.3043C41.2983 41.7932 40.7586 41.5041 40.2475 41.6587L38.9806 42.0417C40.7857 39.0427 44.0618 37.1338 47.6593 37.1338C51.9646 37.1338 55.808 39.8638 57.2232 43.9268C57.3621 44.3259 57.7361 44.5759 58.1361 44.5759C58.2415 44.5759 58.3489 44.5585 58.4541 44.5218C58.9584 44.3463 59.2247 43.7949 59.0491 43.2908C57.3635 38.4518 52.7865 35.2004 47.6592 35.2004Z" fill="black"/>
<path d="M46.655 57.3902C42.3498 57.3902 38.5064 54.6602 37.0912 50.5972C36.9155 50.0928 36.3643 49.8265 35.8603 50.0022C35.356 50.1777 35.0897 50.7291 35.2653 51.2332C36.9507 56.0725 41.5279 59.3239 46.655 59.3239C50.8937 59.3239 54.7573 57.0982 56.921 53.5916L57.2107 54.5498C57.337 54.9676 57.7208 55.237 58.1357 55.237C58.2284 55.237 58.3226 55.2236 58.4158 55.1954C58.9269 55.041 59.2159 54.5012 59.0615 53.9901L58.0519 50.6507C57.8974 50.1396 57.3576 49.8507 56.8466 50.0051L53.5072 51.0147C52.9961 51.1692 52.7069 51.7088 52.8615 52.2199C53.0161 52.7311 53.5559 53.0201 54.0668 52.8656L55.3338 52.4826C53.5286 55.4813 50.2524 57.3902 46.655 57.3902Z" fill="black"/>
</svg>
