<svg width="66" height="66" viewBox="0 0 66 66" fill="none" xmlns="http://www.w3.org/2000/svg">
<rect width="66" height="66" fill="white"/>
<path d="M8.57362 3.17032V37.1431C8.57362 37.4281 8.80475 37.6598 9.09026 37.6598H32.2788C32.5643 37.6598 32.7954 37.4286 32.7954 37.1431V3.17032C32.7954 2.88531 32.5643 2.65369 32.2788 2.65369H9.09026C8.80475 2.65419 8.57362 2.88531 8.57362 3.17032Z" fill="#8CBAFA"/>
<path d="M13.3074 2.65417H17.944V37.6598H13.3074V2.65417Z" fill="#575B7A"/>
<path d="M39.0297 1.1874L22.4461 24.8714C22.2825 25.105 22.3389 25.4273 22.573 25.5909L42.0837 39.253C42.3173 39.4166 42.6396 39.3597 42.8032 39.1261L59.3868 15.4421C59.551 15.2085 59.4941 14.8862 59.2604 14.7225L39.7493 1.06051C39.5151 0.897362 39.1934 0.953758 39.0297 1.1874Z" fill="#AED559"/>
<path d="M59.2604 14.7226L56.8626 13.0438C57.068 13.1878 57.1023 13.4939 56.9381 13.7276L40.3545 37.4116C40.1909 37.6452 39.8918 37.7177 39.6858 37.5737L42.0837 39.253C42.3173 39.4167 42.6396 39.3598 42.8032 39.1261L59.3868 15.4421C59.5505 15.2085 59.4941 14.8862 59.2604 14.7226Z" fill="#7FAB38"/>
<path d="M43.7585 16.0997C41.1718 14.2885 37.0362 15.7327 34.521 19.3249C32.0058 22.9172 32.0632 27.2975 34.6499 29.1082C37.2361 30.9194 41.3717 29.4753 43.8869 25.883C46.4025 22.2908 46.3446 17.9105 43.7585 16.0997Z" fill="#FFEB96"/>
<path d="M5.9668 26.2008V55.3074C5.9668 57.4071 7.66876 59.1086 9.76802 59.1086H51.7728C53.8726 59.1086 55.574 57.4066 55.574 55.3074V26.2008C55.574 24.101 53.872 22.3995 51.7728 22.3995H9.76802C7.66876 22.3995 5.9668 24.1015 5.9668 26.2008Z" fill="#F28F88"/>
<path d="M51.7728 22.3995H48.5637C50.663 22.3995 52.365 24.1015 52.365 26.2008V55.3074C52.365 57.4066 50.663 59.1086 48.5637 59.1086H51.7728C53.8726 59.1086 55.5745 57.4066 55.5745 55.3074V26.2008C55.574 24.1015 53.8726 22.3995 51.7728 22.3995Z" fill="#CE675D"/>
<path d="M55.3942 46.7311H47.6866C44.3854 46.7311 41.7095 44.0553 41.7095 40.7541C41.7095 37.4528 44.3854 34.777 47.6866 34.777H55.3942C57.6033 34.777 59.3939 36.5676 59.3939 38.7767V42.7315C59.3939 44.9405 57.6033 46.7311 55.3942 46.7311Z" fill="#FFD2C0"/>
<path d="M55.3942 43.8553H47.6866C44.8813 43.8553 42.5283 41.9222 41.8848 39.3159C41.771 39.7767 41.7095 40.258 41.7095 40.754C41.7095 44.0552 44.3854 46.731 47.6866 46.731H55.3942C57.6033 46.731 59.3939 44.9405 59.3939 42.7314V39.8552C59.3939 42.0647 57.6033 43.8553 55.3942 43.8553Z" fill="#EDAA9D"/>
<path d="M50.5517 40.754C50.5517 42.2002 49.3795 43.3719 47.9333 43.3719C46.4876 43.3719 45.3154 42.2002 45.3154 40.754C45.3154 39.3083 46.4876 38.1361 47.9333 38.1361C49.3795 38.1361 50.5517 39.3083 50.5517 40.754Z" fill="#CE675D"/>
<path d="M41.484 54.3199C41.484 60.2365 36.6873 65.0332 30.7707 65.0332C24.8536 65.0332 20.0568 60.2365 20.0568 54.3199C20.0568 48.4028 24.8536 43.6066 30.7707 43.6066C36.6873 43.6066 41.484 48.4028 41.484 54.3199Z" fill="#FFCD34"/>
<path d="M35.4929 44.7023C37.5362 46.6535 38.8117 49.4023 38.8117 52.4507C38.8117 58.3673 34.015 63.164 28.0984 63.164C26.403 63.164 24.8007 62.7688 23.3762 62.0678C25.2992 63.9037 27.902 65.0332 30.7707 65.0332C36.6872 65.0332 41.484 60.2365 41.484 54.3199C41.484 50.0982 39.0413 46.448 35.4929 44.7023Z" fill="#E69012"/>
<path d="M42.3727 5.20413C42.1502 5.04803 41.8722 4.99264 41.6073 5.05206C41.342 5.11148 41.1144 5.27966 40.9794 5.51532C40.9729 5.5269 40.9648 5.53747 40.9578 5.54805C40.6476 5.99116 40.0348 6.09892 39.5917 5.78924C39.1541 5.48309 38.5514 5.58883 38.2452 6.02641L36.8363 8.03906C36.5301 8.47663 36.6364 9.07937 37.0735 9.38552C37.2427 9.50386 37.436 9.56076 37.6274 9.56076C37.932 9.56076 38.2321 9.41674 38.4199 9.14836L39.3691 7.79232C40.2604 8.04057 41.2287 7.84922 41.9588 7.27418L43.3848 8.2727C43.8224 8.57885 44.4246 8.47261 44.7313 8.03553C45.0375 7.59796 44.9312 6.99522 44.4936 6.68907L42.3727 5.20413Z" fill="black"/>
<path d="M53.0644 17.3823L52.1152 18.7378C51.8091 19.1754 51.9153 19.7781 52.3524 20.0843C52.5216 20.2026 52.7149 20.259 52.9063 20.259C53.2109 20.259 53.511 20.1155 53.6988 19.8466L55.1082 17.8344C55.4144 17.3969 55.3082 16.7941 54.8711 16.488C54.428 16.1778 54.3197 15.565 54.6304 15.1214C54.6379 15.1108 54.645 15.1002 54.6535 15.0906C54.8288 14.8827 54.9088 14.6113 54.8736 14.3419C54.8389 14.0725 54.6923 13.8298 54.4698 13.6742L52.3488 12.1893C51.9113 11.8831 51.3085 11.9893 51.0024 12.4269C50.6957 12.864 50.8025 13.4672 51.2396 13.7734L52.6656 14.7714C52.3745 15.6546 52.5261 16.6295 53.0644 17.3823Z" fill="black"/>
<path d="M47.9338 39.1024C48.393 39.1024 48.8195 39.2862 49.1347 39.6206C49.5013 40.0083 50.1131 40.0259 50.5014 39.6593C50.8901 39.2928 50.9072 38.681 50.5406 38.2927C49.8664 37.5787 48.9162 37.1688 47.9338 37.1688C45.9569 37.1688 44.3491 38.7771 44.3491 40.754C44.3491 42.7304 45.9569 44.3387 47.9338 44.3387C48.8915 44.3387 49.7919 43.9661 50.4686 43.2888C50.8463 42.9112 50.8463 42.2989 50.4686 41.9217C50.0915 41.5441 49.4792 41.5441 49.1015 41.9217C48.7898 42.2334 48.3749 42.4051 47.9338 42.4051C47.0234 42.4051 46.2827 41.6644 46.2827 40.754C46.2827 39.8431 47.0234 39.1024 47.9338 39.1024Z" fill="black"/>
<path d="M56.5418 33.9437V26.2002C56.5418 23.5712 54.4028 21.4322 51.7738 21.4322H46.6432C46.9433 18.84 46.0969 16.56 44.3113 15.3097C42.7987 14.2507 40.8389 14.0609 38.7925 14.7749C36.8585 15.4502 35.0593 16.8691 33.7279 18.7705C33.1383 19.6119 32.669 20.5042 32.3286 21.4322H26.0344L39.5635 2.11088L58.3369 15.2558L55.4768 19.341C55.1707 19.7786 55.2769 20.3813 55.714 20.6875C56.1516 20.9936 56.7543 20.8874 57.0605 20.4498L60.1784 15.997C60.6482 15.3278 60.4855 14.4008 59.8153 13.9305L40.3047 0.26944C39.9804 0.0418402 39.5866 -0.0457758 39.1964 0.0227056C38.8061 0.0916906 38.4663 0.307709 38.2382 0.632492L33.7632 7.02392V3.16983C33.7632 2.35158 33.0975 1.6859 32.2793 1.6859H9.09025C8.272 1.6859 7.60632 2.35158 7.60632 3.16983V8.46253C7.60632 8.99679 8.03937 9.42933 8.57312 9.42933C9.10737 9.42933 9.53991 8.99679 9.53991 8.46253V3.61999H12.3411V21.4317H9.76802C9.69198 21.4317 9.61595 21.4337 9.53991 21.4372V12.3297C9.53991 11.796 9.10737 11.3629 8.57312 11.3629C8.03937 11.3629 7.60632 11.796 7.60632 12.3297V21.9509C6.06096 22.7404 5 24.3487 5 26.2002V55.3073C5 57.9363 7.13904 60.0754 9.76802 60.0754H16.9868C17.521 60.0754 17.9536 59.6428 17.9536 59.1086C17.9536 58.5748 17.521 58.1418 16.9868 58.1418H9.76802C8.20503 58.1418 6.93359 56.8703 6.93359 55.3073V26.2002C6.93359 24.9615 7.73221 23.9061 8.841 23.5214C8.86567 23.5143 8.89035 23.5063 8.91401 23.4972C9.18391 23.4116 9.47093 23.3653 9.76852 23.3653H51.7738C53.3368 23.3653 54.6087 24.6372 54.6087 26.2002V33.8097H47.6871C43.8582 33.8097 40.7428 36.9246 40.7428 40.754C40.7428 44.5829 43.8582 47.6978 47.6871 47.6978H54.6087V55.3073C54.6087 56.8703 53.3368 58.1418 51.7738 58.1418H44.3864C43.8521 58.1418 43.4196 58.5748 43.4196 59.1086C43.4196 59.6428 43.8521 60.0754 44.3864 60.0754H51.7738C54.4028 60.0754 56.5423 57.9363 56.5423 55.3073V47.5639C58.7297 47.0448 60.3617 45.0749 60.3617 42.7314V38.7766C60.3612 36.4327 58.7292 34.4628 56.5418 33.9437ZM35.3116 19.8803C37.5166 16.7312 41.0565 15.3917 43.2025 16.8938C44.4387 17.7594 44.9831 19.4578 44.6935 21.4317H34.4183C34.6635 20.898 34.9616 20.3788 35.3116 19.8803ZM31.8296 9.78533L23.6743 21.4322H18.9103V3.61949H31.8296V9.78533ZM14.2747 3.61949H16.9767V21.4317H14.2747V3.61949ZM58.4276 42.7309C58.4276 44.4037 57.067 45.7643 55.3943 45.7643H47.6871C44.9242 45.7643 42.6763 43.5164 42.6763 40.7535C42.6763 37.9911 44.9242 35.7433 47.6871 35.7433H55.3943C57.067 35.7433 58.4276 37.1039 58.4276 38.7766V42.7309Z" fill="black"/>
<path d="M30.7707 42.6393C24.3304 42.6393 19.0906 47.8791 19.0906 54.3199C19.0906 60.7602 24.3304 66 30.7707 66C37.2114 66 42.4513 60.7602 42.4513 54.3199C42.4513 47.8791 37.2114 42.6393 30.7707 42.6393ZM30.7707 64.0664C25.3964 64.0664 21.0241 59.6942 21.0241 54.3199C21.0241 48.9451 25.3964 44.5729 30.7707 44.5729C36.1454 44.5729 40.5177 48.9451 40.5177 54.3199C40.5177 59.6942 36.1454 64.0664 30.7707 64.0664Z" fill="black"/>
<path d="M31.5955 53.3531H29.9464C29.4604 53.3531 29.0652 52.9578 29.0652 52.4719C29.0652 51.986 29.4604 51.5907 29.9464 51.5907H33.102C33.6358 51.5907 34.0688 51.1576 34.0688 50.6239C34.0688 50.0901 33.6358 49.6571 33.102 49.6571H31.9152V48.8398C31.9152 48.3061 31.4822 47.873 30.9484 47.873C30.4147 47.873 29.9816 48.3061 29.9816 48.8398V49.6571H29.9464C28.3945 49.6571 27.1316 50.92 27.1316 52.4719C27.1316 54.0238 28.3945 55.2867 29.9464 55.2867H31.5955C32.0814 55.2867 32.4761 55.6814 32.4761 56.1674C32.4761 56.6533 32.0814 57.0485 31.5955 57.0485H28.4398C27.9055 57.0485 27.473 57.4816 27.473 58.0153C27.473 58.5491 27.9055 58.9821 28.4398 58.9821H29.9816V59.7994C29.9816 60.3331 30.4147 60.7662 30.9484 60.7662C31.4827 60.7662 31.9152 60.3331 31.9152 59.7994V58.964C33.3171 58.8044 34.4102 57.6115 34.4102 56.1674C34.4097 54.6154 33.1474 53.3531 31.5955 53.3531Z" fill="black"/>
</svg>
